<svg xmlns="http://www.w3.org/2000/svg" width="888" height="455" viewBox="0 0 888 455">
  <path d="M79.749 412.664c-1.16.869-2.61 1.16-3.915 1.16-2.32 0-4.641-1.16-6.09-3.336l-47.417-68.152v64.383c0 3.914-3.19 7.105-7.105 7.105s-7.25-3.191-7.25-7.105V319.57c-.29-2.754.87-5.51 3.335-7.105 3.336-2.174 7.83-1.305 10.006 2.176l47.271 70.182v-66.268c0-4.059 3.334-7.25 7.25-7.25 3.915 0 7.105 3.191 7.105 7.25v87.004c.435 2.753-.725 5.509-3.19 7.105zm11.306-35.528c0-20.154 16.386-36.395 36.396-36.395 20.155 0 36.396 16.24 36.396 36.395 0 20.012-16.24 36.396-36.396 36.396-20.011.001-36.396-16.384-36.396-36.396zm14.355 0c0 12.035 9.86 22.041 22.041 22.041 12.18 0 22.041-10.006 22.041-22.041 0-12.18-9.861-22.039-22.041-22.039s-22.041 9.86-22.041 22.039zm110.633-29.144c0 3.914-3.191 7.25-7.251 7.25-12.181 0-22.04 9.859-22.04 22.041v29.145c0 3.916-3.19 7.25-7.105 7.25-4.061 0-7.25-3.334-7.25-7.25v-29.145c0-20.156 16.385-36.396 36.396-36.396 4.059-.001 7.25 3.189 7.25 7.105zm58.143 0c0 3.914-3.19 7.25-7.25 7.25H256.64v51.186c0 3.916-3.19 7.25-7.25 7.25-3.915 0-7.105-3.334-7.105-7.25v-51.186h-10.44c-3.915 0-7.105-3.336-7.105-7.25 0-3.916 3.19-7.105 7.105-7.105h10.44v-29.002c0-3.914 3.19-7.105 7.105-7.105 4.06 0 7.25 3.191 7.25 7.105v29.002h10.296c4.059-.001 7.25 3.189 7.25 7.105zm72.788 24.65v33.641c0 4.061-3.336 7.25-7.251 7.25s-7.104-3.189-7.104-7.25v-33.641c0-9.715-7.976-17.545-17.69-17.545a17.513 17.513 0 0 0-17.546 17.545v33.641c0 4.061-3.19 7.25-7.25 7.25-3.915 0-7.105-3.189-7.105-7.25v-94.398c0-3.914 3.19-7.105 7.105-7.105 4.06 0 7.25 3.191 7.25 7.105v34.076c5.075-3.334 11.021-5.219 17.546-5.219 17.689 0 32.045 14.355 32.045 31.9zm81.343 4.494c0 3.916-3.19 7.105-7.25 7.105h-50.026c3.045 8.701 11.165 14.936 20.88 14.936 3.336 0 9.28-.289 16.241-4.785 3.335-2.174 7.83-.145 9.57 3.336 1.74 3.625-.146 7.395-3.48 9.57-9.57 6.379-16.966 6.234-22.331 6.234-20.155 0-36.396-16.385-36.396-36.396 0-20.154 16.24-36.395 36.396-36.395 17.546.001 36.396 12.76 36.396 36.395zm-57.276-7.25h41.906c-3.045-10.15-12.325-14.789-21.026-14.789-9.715 0-17.835 6.235-20.88 14.789zm168.055.725c.145.291.145.436.145.727v35.236c0 4.059-3.335 7.25-7.25 7.25s-7.105-3.191-7.105-7.25v-36.543c0-8.119-6.67-14.645-14.79-14.645s-14.791 6.525-14.791 14.645v36.543c0 4.059-3.189 7.25-7.104 7.25-3.916 0-7.251-3.191-7.251-7.25v-36.543a14.605 14.605 0 0 0-14.646-14.645c-8.12 0-14.79 6.525-14.79 14.645v36.543c0 4.059-3.19 7.25-7.105 7.25-4.06 0-7.25-3.191-7.25-7.25v-36.543c0-15.949 13.051-29 29.146-29 8.7 0 16.531 3.77 21.896 10.006 5.364-6.236 13.195-10.006 21.896-10.006 16.095 0 29.146 13.051 29.146 29-.003.291-.003.435-.147.58zm118.754 35.672c0 4.061-3.336 7.25-7.251 7.25h-50.461c-4.061 0-7.25-3.189-7.25-7.25V319.57c0-4.061 3.189-7.25 7.25-7.25 3.915 0 7.25 3.189 7.25 7.25v79.463h43.211c3.915 0 7.251 3.189 7.251 7.25zm11.013-81.928c-1.305-1.305-2.175-3.189-2.175-5.074s.87-3.771 2.175-5.076c1.306-1.305 3.19-2.174 5.075-2.174 1.886 0 3.771.869 5.075 2.174 1.306 1.305 2.03 3.191 2.03 5.076s-.725 3.77-2.03 5.074c-1.305 1.305-3.189 2.031-5.075 2.031-1.884 0-3.769-.726-5.075-2.031zm-2.175 82.072v-58.436c0-3.916 3.19-7.105 7.25-7.105 3.915 0 7.105 3.189 7.105 7.105v58.436c0 4.061-3.19 7.25-7.105 7.25-4.059 0-7.25-3.189-7.25-7.25zm95.413 7.106c0 20.012-16.386 36.396-36.396 36.396-14.065 0-26.535-7.83-32.771-20.445-1.74-3.625-.29-7.83 3.335-9.57 3.479-1.74 7.83-.291 9.57 3.189 3.77 7.686 11.311 12.471 19.865 12.471 12.035 0 21.751-9.715 22.041-21.605v-7.975c-6.235 4.639-13.775 7.539-22.041 7.539-20.155 0-36.396-16.385-36.396-36.396 0-20.154 16.24-36.395 36.396-36.395 20.011 0 36.396 16.24 36.396 36.395.001-.001.001-.001.001 36.396zm-14.356-36.397c0-12.18-10.006-22.039-22.041-22.039-12.181 0-22.04 9.859-22.04 22.039 0 12.035 9.859 22.041 22.04 22.041 12.035 0 22.041-10.006 22.041-22.041zm86.564-4.494v33.641c0 4.061-3.336 7.25-7.251 7.25s-7.104-3.189-7.104-7.25v-33.641c0-9.715-7.976-17.545-17.69-17.545a17.513 17.513 0 0 0-17.546 17.545v33.641c0 4.061-3.19 7.25-7.25 7.25-3.915 0-7.105-3.189-7.105-7.25v-94.398c0-3.914 3.19-7.105 7.105-7.105 4.06 0 7.25 3.191 7.25 7.105v34.076c5.075-3.334 11.021-5.219 17.546-5.219 17.689 0 32.045 14.355 32.045 31.9zm50.604-24.65c0 3.914-3.19 7.25-7.251 7.25h-10.295v51.186c0 3.916-3.19 7.25-7.25 7.25-3.915 0-7.105-3.334-7.105-7.25v-51.186h-10.44c-3.915 0-7.104-3.336-7.104-7.25 0-3.916 3.189-7.105 7.104-7.105h10.44v-29.002c0-3.914 3.19-7.105 7.105-7.105 4.06 0 7.25 3.191 7.25 7.105v29.002h10.295c4.061-.001 7.251 3.189 7.251 7.105z" fill="#6FBAD0"/>
  <g fill-rule="evenodd" clip-rule="evenodd" fill="#454546">
    <path d="M446.699 265.07c-36.501-.99-66.604-13.465-91.942-37.787-7.58-7.277-8.665-13.961-1.881-22.248 5.909-7.219 11.067-15.049 16.767-22.445 6.954-9.025 10.77-8.908 18.03.225 1.21 1.523 2.313 3.131 3.517 4.66 7.073 8.996 11.243 9.164 18.093.213 7.806-10.197 15.342-20.604 22.922-30.971 5.548-7.588 11.009-7.832 16.688-.162 10.886 14.701 22.186 29.113 32.606 44.133 7.109 10.244 15.895 15.387 28.488 14.492 7.748-.549 15.568-.107 23.354-.066 3.14.02 6.624-.035 8.236 3.184 2.019 4.025-1.223 6.598-3.652 8.969-21.955 21.41-48.09 34-78.734 36.9-4.651.44-9.316.674-12.492.903z"/>
    <path d="M446.269 5.07c80.147-.154 141.416 71.865 128.404 151.16-.771 4.715 0 11.438-5.662 13.143-6.271 1.887-8.049-4.922-10.873-8.742-9.034-12.221-17.646-24.752-26.655-36.988-8.09-10.98-16.098-11.006-24.244-.25-4.466 5.9-8.508 12.127-13.051 17.967-7.992 10.271-15.625 10.309-23.41-.365-15.844-21.721-31.314-43.713-46.959-65.582-10.615-14.84-17.481-14.777-28.313.346-20.194 28.195-40.276 56.471-60.57 84.594-2.782 3.859-4.502 10.564-10.751 9.076-6.042-1.438-5.125-8.236-5.912-12.863C304.861 77.518 366.037 5.227 446.269 5.07z"/>
  </g>
</svg>
