<svg xmlns="http://www.w3.org/2000/svg" width="297.331" height="48.001" viewBox="0 0 297.331 48.001">
  <path fill="none" d="M53 13.676h245.167v20.649H53z"/>
  <path fill="#6FBAD0" d="M64.574 30.065a.988.988 0 0 1-.594.176c-.352 0-.704-.176-.924-.506L55.86 19.394v9.77c0 .594-.484 1.078-1.078 1.078s-1.1-.484-1.1-1.078V15.939a1.13 1.13 0 0 1 .506-1.079 1.084 1.084 0 0 1 1.519.33l7.173 10.65V15.785c0-.616.506-1.1 1.1-1.1.594 0 1.078.484 1.078 1.1v13.202c.066.418-.11.836-.484 1.078zm1.714-5.39a5.526 5.526 0 0 1 5.522-5.523 5.512 5.512 0 0 1 5.523 5.523 5.526 5.526 0 0 1-5.523 5.522c-3.036 0-5.522-2.486-5.522-5.522zm2.178 0a3.357 3.357 0 0 0 3.344 3.344 3.357 3.357 0 0 0 3.345-3.344 3.343 3.343 0 0 0-3.345-3.345 3.343 3.343 0 0 0-3.344 3.345zm16.786-4.423c0 .594-.484 1.1-1.1 1.1a3.343 3.343 0 0 0-3.344 3.344v4.423c0 .594-.484 1.101-1.078 1.101-.616 0-1.1-.507-1.1-1.101v-4.423a5.525 5.525 0 0 1 5.522-5.522c.616 0 1.1.484 1.1 1.078zm8.822 0c0 .594-.484 1.1-1.101 1.1h-1.562v7.767c0 .594-.484 1.101-1.101 1.101-.594 0-1.078-.507-1.078-1.101v-7.767h-1.584c-.594 0-1.078-.506-1.078-1.1a1.08 1.08 0 0 1 1.078-1.078h1.584v-4.401a1.08 1.08 0 0 1 1.078-1.078c.616 0 1.101.484 1.101 1.078v4.401h1.562c.617 0 1.101.484 1.101 1.078zm11.044 3.74v5.104c0 .616-.506 1.101-1.101 1.101a1.085 1.085 0 0 1-1.078-1.101v-5.104c0-1.474-1.21-2.662-2.685-2.662a2.657 2.657 0 0 0-2.662 2.662v5.104a1.09 1.09 0 0 1-1.101 1.101 1.085 1.085 0 0 1-1.078-1.101V14.773a1.08 1.08 0 0 1 1.078-1.078c.616 0 1.101.484 1.101 1.078v5.171a4.798 4.798 0 0 1 2.662-.792c2.685 0 4.864 2.178 4.864 4.84zm12.343.683c0 .594-.484 1.078-1.101 1.078h-7.591c.462 1.32 1.694 2.266 3.169 2.266.506 0 1.408-.044 2.464-.726.506-.33 1.188-.022 1.452.506.264.55-.021 1.122-.528 1.452-1.452.969-2.574.946-3.388.946a5.526 5.526 0 0 1-5.523-5.522 5.512 5.512 0 0 1 5.523-5.523c2.663 0 5.523 1.936 5.523 5.523zm-8.691-1.101h6.359c-.463-1.54-1.871-2.244-3.19-2.244a3.363 3.363 0 0 0-3.169 2.244zm25.5.111a.206.206 0 0 1 .021.11v5.347c0 .615-.506 1.1-1.1 1.1s-1.078-.484-1.078-1.1v-5.545c0-1.232-1.013-2.222-2.244-2.222-1.232 0-2.244.99-2.244 2.222v5.545c0 .615-.484 1.1-1.079 1.1-.594 0-1.1-.484-1.1-1.1v-5.545c0-1.232-.99-2.222-2.223-2.222-1.231 0-2.244.99-2.244 2.222v5.545c0 .615-.484 1.1-1.078 1.1a1.09 1.09 0 0 1-1.101-1.1v-5.545c0-2.42 1.98-4.4 4.423-4.4 1.32 0 2.509.572 3.322 1.518a4.355 4.355 0 0 1 3.323-1.518c2.442 0 4.422 1.98 4.422 4.4.001.043.001.065-.02.088zm18.017 5.412c0 .616-.506 1.101-1.101 1.101h-7.657a1.09 1.09 0 0 1-1.1-1.101V15.939a1.09 1.09 0 0 1 1.1-1.101c.595 0 1.101.484 1.101 1.101v12.058h6.557c.594 0 1.1.484 1.1 1.1zm1.67-12.431a1.125 1.125 0 0 1-.33-.771c0-.286.133-.572.33-.77.198-.198.484-.33.771-.33s.572.132.771.33c.197.198.308.484.308.77 0 .286-.11.572-.308.771-.198.198-.484.308-.771.308s-.573-.111-.771-.308zm-.33 12.453v-8.867c0-.594.484-1.078 1.101-1.078a1.08 1.08 0 0 1 1.078 1.078v8.867c0 .616-.484 1.101-1.078 1.101a1.09 1.09 0 0 1-1.101-1.101zm14.478 1.078c0 3.036-2.487 5.522-5.523 5.522-2.134 0-4.026-1.188-4.973-3.103a1.075 1.075 0 0 1 .506-1.452 1.092 1.092 0 0 1 1.452.484 3.333 3.333 0 0 0 3.015 1.893c1.826 0 3.301-1.475 3.345-3.278v-1.211c-.946.704-2.091 1.145-3.345 1.145a5.525 5.525 0 0 1-5.522-5.522 5.512 5.512 0 0 1 5.522-5.523 5.527 5.527 0 0 1 5.523 5.523v5.522zm-2.178-5.522a3.358 3.358 0 0 0-3.345-3.345 3.344 3.344 0 0 0-3.345 3.345 3.358 3.358 0 0 0 3.345 3.344c1.826 0 3.345-1.518 3.345-3.344zm13.134-.683v5.104c0 .616-.506 1.101-1.101 1.101a1.085 1.085 0 0 1-1.078-1.101v-5.104c0-1.474-1.21-2.662-2.685-2.662a2.657 2.657 0 0 0-2.662 2.662v5.104a1.09 1.09 0 0 1-1.1 1.101 1.085 1.085 0 0 1-1.079-1.101V14.773a1.08 1.08 0 0 1 1.079-1.078c.615 0 1.1.484 1.1 1.078v5.171a4.798 4.798 0 0 1 2.662-.792c2.685 0 4.864 2.178 4.864 4.84zm7.677-3.74c0 .594-.484 1.1-1.101 1.1h-1.563v7.767c0 .594-.483 1.101-1.1 1.101-.595 0-1.078-.507-1.078-1.101v-7.767h-1.585c-.594 0-1.078-.506-1.078-1.1a1.08 1.08 0 0 1 1.078-1.078h1.585v-4.401a1.08 1.08 0 0 1 1.078-1.078c.616 0 1.1.484 1.1 1.078v4.401h1.563c.617 0 1.101.484 1.101 1.078z"/>
  <path fill="#454546" d="M205.24 30.065a.988.988 0 0 1-.594.176c-.352 0-.704-.176-.924-.506l-7.195-10.342v9.77c0 .594-.484 1.078-1.078 1.078s-1.101-.484-1.101-1.078V15.939a1.131 1.131 0 0 1 .507-1.079 1.083 1.083 0 0 1 1.518.33l7.174 10.65V15.785c0-.616.506-1.1 1.1-1.1s1.078.484 1.078 1.1v13.202c.066.418-.111.836-.485 1.078zm1.715-5.39a5.526 5.526 0 0 1 5.522-5.523 5.511 5.511 0 0 1 5.522 5.523 5.525 5.525 0 0 1-5.522 5.522c-3.036 0-5.522-2.486-5.522-5.522zm2.178 0a3.358 3.358 0 0 0 3.345 3.344 3.357 3.357 0 0 0 3.345-3.344 3.343 3.343 0 0 0-3.345-3.345 3.344 3.344 0 0 0-3.345 3.345zm16.325-4.423c0 .594-.484 1.1-1.101 1.1h-1.563v7.767c0 .594-.483 1.101-1.1 1.101-.595 0-1.078-.507-1.078-1.101v-7.767h-1.585c-.594 0-1.078-.506-1.078-1.1a1.08 1.08 0 0 1 1.078-1.078h1.585v-4.401a1.08 1.08 0 0 1 1.078-1.078c.616 0 1.1.484 1.1 1.078v4.401h1.563c.617 0 1.101.484 1.101 1.078zm11 4.423c0 .594-.484 1.078-1.101 1.078h-7.591c.462 1.32 1.694 2.266 3.169 2.266.506 0 1.408-.044 2.464-.726.506-.33 1.188-.022 1.452.506.264.55-.021 1.122-.528 1.452-1.452.969-2.574.946-3.388.946a5.526 5.526 0 0 1-5.523-5.522 5.512 5.512 0 0 1 5.523-5.523c2.663 0 5.523 1.936 5.523 5.523zm-8.691-1.101h6.359c-.463-1.54-1.871-2.244-3.19-2.244a3.364 3.364 0 0 0-3.169 2.244zm12.211 5.589v5.479a1.08 1.08 0 0 1-1.078 1.078 1.085 1.085 0 0 1-1.101-1.078v-9.878c0-3.037 2.486-5.523 5.523-5.523a5.526 5.526 0 0 1 5.522 5.523 5.511 5.511 0 0 1-5.522 5.522 5.515 5.515 0 0 1-3.344-1.123zm0-4.4v.021c0 1.826 1.496 3.323 3.345 3.323a3.343 3.343 0 0 0 3.344-3.345 3.357 3.357 0 0 0-3.344-3.345 3.344 3.344 0 0 0-3.345 3.346zm21.141 0v4.313c0 .638-.462 1.1-1.1 1.1-.44 0-1.057-.462-1.057-1.1-.946.792-2.002 1.1-3.256 1.1-3.103 0-5.567-2.31-5.567-5.412s2.465-5.567 5.567-5.567 5.413 2.463 5.413 5.566zm-2.156 0c0-1.849-1.408-3.411-3.256-3.411-1.849 0-3.411 1.562-3.411 3.411 0 1.848 1.563 3.256 3.411 3.256s3.256-1.409 3.256-3.256zm12.363-4.533v-5.479a1.08 1.08 0 0 1 1.078-1.078c.616 0 1.101.484 1.101 1.078v9.878c0 3.037-2.486 5.523-5.522 5.523a5.526 5.526 0 0 1-5.523-5.523 5.512 5.512 0 0 1 5.523-5.522c1.253 0 2.419.419 3.343 1.123zm0 4.4v-.021c0-1.826-1.496-3.322-3.344-3.322a3.343 3.343 0 0 0-3.345 3.344 3.358 3.358 0 0 0 3.345 3.345 3.344 3.344 0 0 0 3.344-3.346zm9.945-3.96v3.103h3.059c.594 0 1.078.484 1.078 1.1a1.08 1.08 0 0 1-1.078 1.078h-3.059v3.037c0 .594-.484 1.078-1.101 1.078a1.08 1.08 0 0 1-1.078-1.078V25.95h-3.08c-.616 0-1.1-.483-1.1-1.078 0-.615.483-1.1 1.1-1.1h3.08V20.67c0-.616.484-1.1 1.078-1.1a1.09 1.09 0 0 1 1.101 1.1zm11.923 0v3.103h3.059c.594 0 1.078.484 1.078 1.1a1.08 1.08 0 0 1-1.078 1.078h-3.059v3.037c0 .594-.484 1.078-1.101 1.078a1.08 1.08 0 0 1-1.078-1.078V25.95h-3.08c-.616 0-1.1-.483-1.1-1.078 0-.615.483-1.1 1.1-1.1h3.08V20.67c0-.616.484-1.1 1.078-1.1a1.09 1.09 0 0 1 1.101 1.1z"/>
  <path opacity=".05" d="M36.063 4.085c5.983 4.148 9.895 11.062 9.895 18.895 0 12.691-10.284 22.979-22.98 22.979-7.832 0-14.745-3.91-18.895-9.895a23.796 23.796 0 0 0 3.861 5.076 23.424 23.424 0 0 0 15.799 6.096c12.975 0 23.491-10.518 23.491-23.491a23.41 23.41 0 0 0-6.096-15.798 23.712 23.712 0 0 0-5.075-3.862zm5.076 3.861A23.4 23.4 0 0 1 47.49 24c0 12.973-10.516 23.489-23.49 23.489a23.405 23.405 0 0 1-16.055-6.35C12.195 45.369 18.039 48 24.51 48 37.484 48 48 37.482 48 24.51c0-6.469-2.63-12.316-6.861-16.564z"/>
  <path opacity=".1" d="M41.139 7.946a23.408 23.408 0 0 1 6.097 15.798c0 12.974-10.517 23.491-23.49 23.491a23.417 23.417 0 0 1-15.799-6.096 23.401 23.401 0 0 0 16.055 6.35c12.974 0 23.49-10.518 23.49-23.489a23.405 23.405 0 0 0-6.353-16.054z"/>
  <path opacity=".2" d="M30.896 1.404c8.799 3.221 15.064 11.66 15.064 21.58 0 12.69-10.285 22.979-22.979 22.979-9.915 0-18.354-6.266-21.571-15.066 4.008 12.34 17.26 19.094 29.598 15.086A23.487 23.487 0 0 0 47.242 23.75 23.49 23.49 0 0 0 30.9 1.409l-.004-.005z"/>
  <path fill="#454546" d="M23.491 0c12.974 0 23.49 10.517 23.49 23.489 0 12.975-10.517 23.49-23.49 23.49C10.517 46.979 0 36.462 0 23.489S10.517 0 23.491 0z"/>
  <path opacity=".1" d="M39.862 6.67a23.406 23.406 0 0 1 6.097 15.798c0 12.975-10.517 23.49-23.49 23.49a23.42 23.42 0 0 1-15.8-6.096c4.268 4.381 10.224 7.117 16.82 7.117 12.975 0 23.491-10.518 23.491-23.49 0-6.599-2.734-12.552-7.118-16.819z"/>
  <path fill="#6FBAD0" d="M37.023 26.585v2.389h-2.401v1.459h2.401v2.391h1.447v-2.391h2.39v-1.459h-2.39v-2.389h-1.447zm-7.42 0v2.389h-2.399v1.459h2.399v2.391h1.449v-2.391h2.39v-1.459h-2.39v-2.389h-1.449zm-4.079-4.583c2.266 0 .229 11.546-1.723 11.526-1.082-.01-4.006-7.773-3.477-8.645-.924.949-2.157 3.076-3.26 5.381-1.427 2.982-2.714 6.104-3.662 5.701-.925-.566 1.453-4.232 3.56-7.602 1.772-2.836 2.579-5.502 3.986-5.502 1.516 0 1.624 5.031 3.417 8.35 1.189-1.892-.783-9.209 1.159-9.209z"/>
  <path fill="#F2F2F7" d="M16.114 29.599c-.544 0-.773 1.031-.773 1.031s.231-.264.467-.42c.115-.074.219-.135.307-.111.303.078.551.705.518 1.016a.233.233 0 0 0-.017.082c-.011.021-.022.041-.032.064-.218.463-.436.934-.646 1.371.847-.279 1.403-1.146 1.403-1.775 0-.264-.094-.488-.225-.678-.229-.33-.595-.535-.921-.564-.028-.005-.052-.016-.081-.016z"/>
  <path fill="#F2F2F7" d="M18.671 31.579c0-2.273-1.041-4.051-2.8-4.051-1.507 0-2.466 1.135-2.576 2.975-.027.467.15.885.397 1.232l.912-.531a1.819 1.819 0 0 1-.197-.75c0-.916.488-1.789 1.413-1.789 1.246 0 1.801 1.422 1.801 2.701l1.05.213z"/>
  <path fill="#F2F2F7" d="M13.495 32.954c-3.628-4.734-.727-7.527 2-10.377.073.599.345 1.05.95 1.25.429.287.902-.774 1.75-.875.696-.084 1.484.906 2.018.999.386-.356.813-.562.973-.817-.325-1.144-.646-1.951-1.688-1.732-.505-.219-.954-.564-1.202-1.025 1.07-.033 1.785.043 1.976-.649.983.104 1.82.229 2.523.185 3.62-.235 3.74-2.492 1.608-5.02-.588-.698-1.354-.69-2.232-.691-.952-1.064-2.268-1.966-4.05-2.2-.097.646.179 1.262.475 1.876-3.738-3.535-8.308-1.364-10.054 1.404-2.785 4.418-1.451 13.17 4.253 18.873 1.838 1.84 5.876.273 5.876-2.574 0-2.273-1.041-4.051-2.8-4.051-1.507 0-2.576 1.129-2.576 2.975 0 1.281 1.183 2.225 2.101 2.225 1.154 0 1.938-1.117 1.938-1.873 0-.762-.7-1.25-1.226-1.25-.545 0-.775 1.023-.775 1.023s.514-.596.788-.523c.302.078.547.705.513 1.016-.039.35-.875.754-1.226.764-.55.012-1.001-.881-1.001-1.43 0-.916.488-1.789 1.413-1.789 1.246 0 1.801 1.422 1.801 2.701 0 1.041-1.144 2.377-2.525 2.377-.515-.003-1.342-.454-1.601-.792z"/>
  <path fill="#F9F9FC" d="M22.534 15.982a1.457 1.457 0 1 1-2.914 0 1.457 1.457 0 0 1 2.914 0z"/>
  <path fill="#454546" d="M22.06 16.214a.6.6 0 1 1-1.202-.002.6.6 0 0 1 1.202.002z"/>
</svg>
